{"title":"Imagine.Me.&amp;.You.2005.SWESUB.DVDRip.XviD.AC3.(5.1).-Zen_Bud","uid":5602249,"size":1470968390,"categoryP":"video","categoryS":"movies","magnet":"?xt=urn:btih:e30ac1dd71f863ced0c3f321c8e57bde6d9bf15b&amp;dn=Imagine.Me.%26.You.2005.SWESUB.DVDRip.XviD.AC3.%285.1%29.-Zen_Bud&amp;tr=udp%3A%2F%2Ftracker.openbittorrent.com%3A80&amp;tr=udp%3A%2F%2Fopen.demonii.com%3A1337&amp;tr=udp%3A%2F%2Ftracker.coppersurfer.tk%3A6969&amp;tr=udp%3A%2F%2Fexodus.desync.com%3A6969","seeders":0,"leechers":1,"uploader":"Zen_Bud","files":1,"time":1275381068,"description":"General\nComplete name                    : Imagine.Me.And.You.avi\nFormat                           : AVI\nFile size                        : 1.37 GiB\nDuration                         : 1h 29mn\nOverall bit rate                 : 2 184 Kbps\n\nVideo\nID                               : 0\nFormat                           : MPEG-4 Visual\nCodec ID/Hint                    : XviD\nDuration                         : 1h 29mn\nBit rate                         : 1 725 Kbps\nWidth                            : 720 pixels\nHeight                           : 436 pixels\nDisplay aspect ratio             : 2.35:1\nChroma subsampling               : 4:2:0\nBit depth                        : 8 bits\nScan type                        : Progressive\nBits/(Pixel*Frame)               : 0.220\nStream size                      : 1.08 GiB (79%)\nWriting library                  : XviD 1.1.2 (UTC 2006-11-01)\n\nAudio\nID                               : 1\nFormat                           : AC-3\nDuration                         : 1h 29mn\nBit rate                         : 448 Kbps\nChannel(s)                       : 6 channels\nChannel positions                : Front: L C R, Side: L R, LFE\nSampling rate                    : 48.0 KHz\nStream size                      : 288 MiB (21%)\n\n\n","torrent":{"xt":"urn:btih:e30ac1dd71f863ced0c3f321c8e57bde6d9bf15b","amp;dn":"Imagine.Me.%26.You.2005.SWESUB.DVDRip.XviD.AC3.%285.1%29.-Zen_Bud","amp;tr":["udp%3A%2F%2Ftracker.openbittorrent.com%3A80","udp%3A%2F%2Fopen.demonii.com%3A1337","udp%3A%2F%2Ftracker.coppersurfer.tk%3A6969","udp%3A%2F%2Fexodus.desync.com%3A6969"],"infoHash":"e30ac1dd71f863ced0c3f321c8e57bde6d9bf15b","infoHashBuffer":{"type":"Buffer","data":[227,10,193,221,113,248,99,206,208,195,243,33,200,229,123,222,109,155,241,91]},"announce":[],"urlList":[]}}